:FULLY-SPECIFIED
:FORCE-ALL-JOINTS-BE-3DOF
:DEGREES
211
root 8.33032 16.5057 -7.87084 8.02144 0.0992145 -5.76998
lfemur -43.9644 -3.02121 -10.4458
ltibia 20.6764 0 0
lfoot -17.0544 15.5005 0
ltoes -15.0271 0 0
rfemur 10.2027 5.52875 31.4129
rtibia 1.90833e-14 0 0
rfoot -12.3628 5.48057 0
rtoes -7.94378 0 0
lowerback -7.13788 2.38145 3.2314
upperback -0.881891 2.79721 3.76278
thorax 3.05436 1.41186 2.3506
lowerneck -16.0094 -6.48103 -14.5454
upperneck 14.841 -8.22255 14.9955
head 8.51353 -3.37244 6.49326
lclavicle -4.37326e-14 -1.11319e-14 0
lhumerus -50.7834 -11.0215 97.2238
lradius 26.7843 0 0
lwrist 9.87187 0 0
lhand -12.6626 -24.8796 0
lfingers 7.12502 0 0
lthumb 13.4184 4.66819 0
rclavicle -4.37326e-14 -1.11319e-14 0
rhumerus -36.9024 12.3182 -82.4905
rradius 53.1376 0 0
rwrist -27.207 0 0
rhand -32.5618 -28.7367 0
rfingers 7.12502 0 0
rthumb -5.79114 -58.6376 0
212
root 8.34982 16.489 -7.71867 8.14271 -0.196281 -5.93931
lfemur -44.2602 -3.18857 -9.9949
ltibia 20.3147 0 0
lfoot -17.1387 15.8832 0
ltoes -15.9519 0 0
rfemur 11.0245 5.62889 31.4942
rtibia -0.76287 0 0
rfoot -12.0695 5.66918 0
rtoes -8.35057 0 0
lowerback -7.33148 2.46069 3.36768
upperback -0.884891 2.88018 3.78462
thorax 3.16358 1.45464 2.31484
lowerneck -15.8866 -6.4541 -14.5766
upperneck 14.7412 -8.18854 15.0248
head 8.45559 -3.36136 6.51265
lclavicle -3.2414e-14 -3.29371e-15 0
lhumerus -50.8476 -10.9396 97.1685
lradius 26.5479 0 0
lwrist 9.46255 0 0
lhand -13.2463 -26.4898 0
lfingers 7.12502 0 0
lthumb 12.8555 3.08979 0
rclavicle -3.2414e-14 -3.29371e-15 0
rhumerus -37.1205 12.5031 -82.7772
rradius 53.3028 0 0
rwrist -27.1956 0 0
rhand -32.382 -28.5971 0
rfingers 7.12502 0 0
rthumb -5.61757 -58.5025 0
213
root 8.36932 16.4722 -7.56649 8.25512 -0.479632 -6.08258
lfemur -44.5457 -3.15112 -9.71846
ltibia 20.1027 0 0
lfoot -17.1195 16.1265 0
ltoes -17.4145 0 0
rfemur 11.5831 5.73675 31.5539
rtibia -0.976474 0 0
rfoot -12.0643 5.85809 0
rtoes -8.91542 0 0
lowerback -7.50727 2.53713 3.48451
upperback -0.879096 2.96068 3.79319
thorax 3.27227 1.4962 2.27636
lowerneck -15.7222 -6.42164 -14.6133
upperneck 14.5884 -8.15061 15.0808
head 8.37358 -3.3484 6.54221
lclavicle -1.31989e-14 9.05578e-15 0
lhumerus -50.8649 -10.7692 97.0244
lradius 26.2885 0 0
lwrist 8.90183 0 0
lhand -14.1666 -28.8922 0
lfingers 7.12502 0 0
lthumb 11.968 0.737953 0
rclavicle -1.31989e-14 9.05578e-15 0
rhumerus -37.3477 12.684 -83.0754
rradius 53.4738 0 0
rwrist -27.1729 0 0
rhand -32.1785 -28.4689 0
rfingers 7.12502 0 0
rthumb -5.42106 -58.3793 0
214
root 8.38882 16.4555 -7.41432 8.36123 -0.754759 -6.2084
lfemur -44.8166 -2.9495 -9.57993
ltibia 20.0244 0 0
lfoot -17.0217 16.2438 0
ltoes -19.0733 0 0
rfemur 11.9693 5.84998 31.5971
rtibia -0.8239 0 0
rfoot -12.2411 6.04467 0
rtoes -9.56244 0 0
lowerback -7.66544 2.60866 3.58397
upperback -0.870249 3.03629 3.79432
thorax 3.3742 1.53523 2.23925
lowerneck -15.5424 -6.38512 -14.6472
upperneck 14.4159 -8.10986 15.148
head 8.28231 -3.3337 6.57535
lclavicle 9.60536e-15 2.30839e-14 0
lhumerus -50.8531 -10.5349 96.8127
lradius 26.0145 0 0
lwrist 8.22004 0 0
lhand -15.2051 -31.6145 0
lfingers 7.12502 0 0
lthumb 10.9666 -1.92749 0
rclavicle 9.60536e-15 2.30839e-14 0
rhumerus -37.5815 12.8583 -83.3799
rradius 53.6307 0 0
rwrist -27.1335 0 0
rhand -31.9718 -28.3742 0
rfingers 7.12502 0 0
rthumb -5.22147 -58.2896 0
215
root 8.40832 16.4388 -7.26215 8.46357 -1.02559 -6.32539
lfemur -45.0689 -2.62433 -9.54281
ltibia 20.0636 0 0
lfoot -16.8698 16.2488 0
ltoes -20.5866 0 0
rfemur 12.274 5.96624 31.6288
rtibia -0.488237 0 0
rfoot -12.4941 6.22629 0
rtoes -10.2158 0 0
lowerback -7.80618 2.67315 3.66812
upperback -0.864094 3.1046 3.79387
thorax 3.46312 1.57044 2.20762
lowerneck -15.3736 -6.34604 -14.67
upperneck 14.2572 -8.06736 15.2107
head 8.1966 -3.31739 6.60547
lclavicle 3.16914e-14 3.5958e-14 0
lhumerus -50.83 -10.2616 96.5548
lradius 25.7341 0 0
lwrist 7.4475 0 0
lhand -16.1432 -34.1844 0
lfingers 7.12502 0 0
lthumb 10.062 -4.44669 0
rclavicle 3.16914e-14 3.5958e-14 0
rhumerus -37.8197 13.0235 -83.6853
rradius 53.7538 0 0
rwrist -27.072 0 0
rhand -31.7825 -28.3353 0
rfingers 7.12502 0 0
rthumb -5.03869 -58.2552 0
216
root 8.42782 16.422 -7.10997 8.56471 -1.29604 -6.44216
lfemur -45.2984 -2.21624 -9.57056
ltibia 20.2043 0 0
lfoot -16.6885 16.1551 0
ltoes -21.6129 0 0
rfemur 12.5881 6.0832 31.6541
rtibia -0.152574 0 0
rfoot -12.7173 6.40034 0
rtoes -10.7995 0 0
lowerback -7.92967 2.72849 3.73905
upperback -0.866372 3.16317 3.79767
thorax 3.53282 1.60054 2.18553
lowerneck -15.2424 -6.30586 -14.6734
upperneck 14.1456 -8.02421 15.2532
head 8.13128 -3.29961 6.62597
lclavicle 4.8752e-14 4.48453e-14 0
lhumerus -50.8132 -9.97383 96.2716
lradius 25.4557 0 0
lwrist 6.61454 0 0
lhand -16.7623 -36.1297 0
lfingers 7.12502 0 0
lthumb 9.46481 -6.35982 0
rclavicle 4.8752e-14 4.48453e-14 0
rhumerus -38.0598 13.1771 -83.9862
rradius 53.8232 0 0
rwrist -26.9832 0 0
rhand -31.6312 -28.3744 0
rfingers 7.12502 0 0
rthumb -4.89256 -58.2978 0
217
root 8.44732 16.4053 -6.9578 8.66718 -1.57004 -6.56732
lfemur -45.5009 -1.76584 -9.62666
ltibia 20.4302 0 0
lfoot -16.5025 15.9762 0
ltoes -21.8105 0 0
rfemur 13.0026 6.19851 31.678
rtibia -4.45278e-14 0 0
rfoot -12.8046 6.5642 0
rtoes -11.2378 0 0
lowerback -8.03609 2.77254 3.79881
upperback -0.882829 3.20958 3.81157
thorax 3.57706 1.62421 2.17708
lowerneck -15.1749 -6.26607 -14.6491
upperneck 14.1145 -7.9815 15.2601
head 8.10115 -3.28047 6.63024
lclavicle 5.64797e-14 4.69132e-14 0
lhumerus -50.8206 -9.69637 95.9845
lradius 25.1876 0 0
lwrist 5.75146 0 0
lhand -16.844 -36.978 0
lfingers 7.12502 0 0
lthumb 9.38584 -7.20702 0
rclavicle 5.64797e-14 4.69132e-14 0
rhumerus -38.2995 13.3165 -84.2773
rradius 53.8193 0 0
rwrist -26.8615 0 0
rhand -31.5384 -28.5135 0
rfingers 7.12502 0 0
rthumb -4.80298 -58.4391 0
218
root 8.4688 16.377 -6.79461 8.76166 -1.85383 -6.70492
lfemur -45.639 -1.24007 -9.72701
ltibia 20.7416 0 0
lfoot -16.4253 15.6535 0
ltoes -20.8766 0 0
rfemur 13.5145 6.31788 31.7066
rtibia -4.06036e-14 0 0
rfoot -12.7847 6.71961 0
rtoes -11.5062 0 0
lowerback -8.11177 2.80161 3.84078
upperback -0.913791 3.24005 3.84259
thorax 3.58719 1.63946 2.19216
lowerneck -15.1798 -6.22407 -14.5867
upperneck 14.1848 -7.93631 15.2171
head 8.11304 -3.25879 6.61229
lclavicle 5.19866e-14 3.96382e-14 0
lhumerus -50.8477 -9.40121 95.6613
lradius 24.9134 0 0
lwrist 4.72184 0 0
lhand -16.2154 -36.4561 0
lfingers 7.12502 0 0
lthumb 9.99166 -6.72521 0
rclavicle 5.19866e-14 3.96382e-14 0
rhumerus -38.5388 13.451 -84.559
rradius 53.7288 0 0
rwrist -26.6911 0 0
rhand -31.5183 -28.801 0
rfingers 7.12502 0 0
rthumb -4.78358 -58.7271 0
219
root 8.49028 16.3487 -6.63142 8.84423 -2.14551 -6.84888
lfemur -45.7085 -0.59982 -9.90402
ltibia 21.1514 0 0
lfoot -16.4599 15.1644 0
ltoes -19.0238 0 0
rfemur 14.0504 6.44432 31.7371
rtibia -3.02742e-14 0 0
rfoot -12.7481 6.86904 0
rtoes -11.6607 0 0
lowerback -8.15382 2.81665 3.86198
upperback -0.954729 3.25577 3.88747
thorax 3.56647 1.64694 2.22948
lowerneck -15.2378 -6.17816 -14.491
upperneck 14.334 -7.88718 15.134
head 8.15647 -3.23422 6.5762
lclavicle 3.81409e-14 2.47818e-14 0
lhumerus -50.8794 -9.063 95.2788
lradius 24.623 0 0
lwrist 3.47413 0 0
lhand -15.0168 -34.8871 0
lfingers 7.12502 0 0
lthumb 11.147 -5.22963 0
rclavicle 3.81409e-14 2.47818e-14 0
rhumerus -38.7795 13.5846 -84.8355
rradius 53.5648 0 0
rwrist -26.4731 0 0
rhand -31.5573 -29.2286 0
rfingers 7.12502 0 0
rthumb -4.82121 -59.1539 0
